<svg xmlns="http://www.w3.org/2000/svg" xmlns:xlink="http://www.w3.org/1999/xlink" contentStyleType="text/css" height="1056px" preserveAspectRatio="none" style="width:2097px;height:1056px;background:#FFFFFF;" version="1.1" viewBox="0 0 2097 1056" width="2097px" zoomAndPan="magnify"><defs/><g><rect fill="#FFFFFF" height="775.5859" style="stroke:#181818;stroke-width:1.0;" width="10" x="570.915" y="148.2031"/><rect fill="#FFFFFF" height="410.7539" style="stroke:#181818;stroke-width:1.0;" width="10" x="1176.7725" y="237.0762"/><rect fill="#FFFFFF" height="189.7461" style="stroke:#181818;stroke-width:1.0;" width="10" x="1396.0957" y="695.752"/><rect fill="none" height="699.0039" style="stroke:#000000;stroke-width:1.5;" width="1626.5918" x="463.5981" y="194.4941"/><rect fill="none" height="302.8809" style="stroke:#000000;stroke-width:1.5;" width="874.1831" x="1079.1729" y="314.6582"/><rect fill="none" height="81.873" style="stroke:#000000;stroke-width:1.5;" width="549.1567" x="1274.3721" y="773.334"/><line style="stroke:#181818;stroke-width:0.5;stroke-dasharray:5.0,5.0;" x1="22" x2="22" y1="83.6211" y2="973.0801"/><line style="stroke:#181818;stroke-width:0.5;stroke-dasharray:5.0,5.0;" x1="286.2446" x2="286.2446" y1="83.6211" y2="973.0801"/><line style="stroke:#181818;stroke-width:0.5;stroke-dasharray:5.0,5.0;" x1="575.5981" x2="575.5981" y1="83.6211" y2="973.0801"/><line style="stroke:#181818;stroke-width:0.5;stroke-dasharray:5.0,5.0;" x1="880.3682" x2="880.3682" y1="83.6211" y2="973.0801"/><line style="stroke:#181818;stroke-width:0.5;stroke-dasharray:5.0,5.0;" x1="1181.1729" x2="1181.1729" y1="83.6211" y2="973.0801"/><line style="stroke:#181818;stroke-width:0.5;stroke-dasharray:5.0,5.0;" x1="1400.3721" x2="1400.3721" y1="83.6211" y2="973.0801"/><line style="stroke:#181818;stroke-width:0.5;stroke-dasharray:5.0,5.0;" x1="1756.7017" x2="1756.7017" y1="83.6211" y2="973.0801"/><line style="stroke:#181818;stroke-width:0.5;stroke-dasharray:5.0,5.0;" x1="1882.5288" x2="1882.5288" y1="83.6211" y2="973.0801"/><line style="stroke:#181818;stroke-width:0.5;stroke-dasharray:5.0,5.0;" x1="2016.356" x2="2016.356" y1="83.6211" y2="973.0801"/><text fill="#000000" font-family="sans-serif" font-size="14" lengthAdjust="spacing" textLength="29.5586" x="5" y="80.1074">User</text><ellipse cx="22.7793" cy="13.5" fill="#E2E2F0" rx="8" ry="8" style="stroke:#181818;stroke-width:0.5;"/><path d="M22.7793,21.5 L22.7793,48.5 M9.7793,29.5 L35.7793,29.5 M22.7793,48.5 L9.7793,63.5 M22.7793,48.5 L35.7793,63.5 " fill="none" style="stroke:#181818;stroke-width:0.5;"/><text fill="#000000" font-family="sans-serif" font-size="14" lengthAdjust="spacing" textLength="29.5586" x="5" y="987.1875">User</text><ellipse cx="22.7793" cy="999.2012" fill="#E2E2F0" rx="8" ry="8" style="stroke:#181818;stroke-width:0.5;"/><path d="M22.7793,1007.2012 L22.7793,1034.2012 M9.7793,1015.2012 L35.7793,1015.2012 M22.7793,1034.2012 L9.7793,1049.2012 M22.7793,1034.2012 L35.7793,1049.2012 " fill="none" style="stroke:#181818;stroke-width:0.5;"/><rect fill="#E2E2F0" height="51.2422" rx="2.5" ry="2.5" style="stroke:#181818;stroke-width:0.5;" width="192.1924" x="190.2446" y="31.3789"/><text fill="#000000" font-family="sans-serif" font-size="14" lengthAdjust="spacing" textLength="170.4131" x="201.1343" y="53.4863">RecommendationController</text><text fill="#000000" font-family="sans-serif" font-size="14" lengthAdjust="spacing" textLength="178.1924" x="197.2446" y="72.1074">: RecommendationController</text><rect fill="#E2E2F0" height="51.2422" rx="2.5" ry="2.5" style="stroke:#181818;stroke-width:0.5;" width="192.1924" x="190.2446" y="972.0801"/><text fill="#000000" font-family="sans-serif" font-size="14" lengthAdjust="spacing" textLength="170.4131" x="201.1343" y="994.1875">RecommendationController</text><text fill="#000000" font-family="sans-serif" font-size="14" lengthAdjust="spacing" textLength="178.1924" x="197.2446" y="1012.8086">: RecommendationController</text><rect fill="#E2E2F0" height="51.2422" rx="2.5" ry="2.5" style="stroke:#181818;stroke-width:0.5;" width="204.6338" x="473.5981" y="31.3789"/><text fill="#000000" font-family="sans-serif" font-size="14" lengthAdjust="spacing" textLength="156.4063" x="497.7119" y="53.4863">RecommendationService</text><text fill="#000000" font-family="sans-serif" font-size="14" lengthAdjust="spacing" textLength="190.6338" x="480.5981" y="72.1074">: RecommendationServiceImpl</text><rect fill="#E2E2F0" height="51.2422" rx="2.5" ry="2.5" style="stroke:#181818;stroke-width:0.5;" width="204.6338" x="473.5981" y="972.0801"/><text fill="#000000" font-family="sans-serif" font-size="14" lengthAdjust="spacing" textLength="156.4063" x="497.7119" y="994.1875">RecommendationService</text><text fill="#000000" font-family="sans-serif" font-size="14" lengthAdjust="spacing" textLength="190.6338" x="480.5981" y="1012.8086">: RecommendationServiceImpl</text><rect fill="#E2E2F0" height="51.2422" rx="2.5" ry="2.5" style="stroke:#181818;stroke-width:0.5;" width="143.9512" x="809.3682" y="31.3789"/><text fill="#000000" font-family="sans-serif" font-size="14" lengthAdjust="spacing" textLength="122.1719" x="820.2578" y="53.4863">AlRecommendation</text><text fill="#000000" font-family="sans-serif" font-size="14" lengthAdjust="spacing" textLength="129.9512" x="816.3682" y="72.1074">: AlRecommendation</text><rect fill="#E2E2F0" height="51.2422" rx="2.5" ry="2.5" style="stroke:#181818;stroke-width:0.5;" width="143.9512" x="809.3682" y="972.0801"/><text fill="#000000" font-family="sans-serif" font-size="14" lengthAdjust="spacing" textLength="122.1719" x="820.2578" y="994.1875">AlRecommendation</text><text fill="#000000" font-family="sans-serif" font-size="14" lengthAdjust="spacing" textLength="129.9512" x="816.3682" y="1012.8086">: AlRecommendation</text><rect fill="#E2E2F0" height="51.2422" rx="2.5" ry="2.5" style="stroke:#181818;stroke-width:0.5;" width="185.1992" x="1089.1729" y="31.3789"/><text fill="#000000" font-family="sans-serif" font-size="14" lengthAdjust="spacing" textLength="86.3789" x="1138.583" y="53.4863">RecAlgByAge</text><text fill="#000000" font-family="sans-serif" font-size="14" lengthAdjust="spacing" textLength="171.1992" x="1096.1729" y="72.1074">: AlRecommendationByAge</text><rect fill="#E2E2F0" height="51.2422" rx="2.5" ry="2.5" style="stroke:#181818;stroke-width:0.5;" width="185.1992" x="1089.1729" y="972.0801"/><text fill="#000000" font-family="sans-serif" font-size="14" lengthAdjust="spacing" textLength="86.3789" x="1138.583" y="994.1875">RecAlgByAge</text><text fill="#000000" font-family="sans-serif" font-size="14" lengthAdjust="spacing" textLength="171.1992" x="1096.1729" y="1012.8086">: AlRecommendationByAge</text><rect fill="#E2E2F0" height="51.2422" rx="2.5" ry="2.5" style="stroke:#181818;stroke-width:0.5;" width="233.4473" x="1284.3721" y="31.3789"/><text fill="#000000" font-family="sans-serif" font-size="14" lengthAdjust="spacing" textLength="71.6064" x="1365.2925" y="53.4863">TopLentAlg</text><text fill="#000000" font-family="sans-serif" font-size="14" lengthAdjust="spacing" textLength="219.4473" x="1291.3721" y="72.1074">: AlRecommendationMostLentBook</text><rect fill="#E2E2F0" height="51.2422" rx="2.5" ry="2.5" style="stroke:#181818;stroke-width:0.5;" width="233.4473" x="1284.3721" y="972.0801"/><text fill="#000000" font-family="sans-serif" font-size="14" lengthAdjust="spacing" textLength="71.6064" x="1365.2925" y="994.1875">TopLentAlg</text><text fill="#000000" font-family="sans-serif" font-size="14" lengthAdjust="spacing" textLength="219.4473" x="1291.3721" y="1012.8086">: AlRecommendationMostLentBook</text><rect fill="#E2E2F0" height="32.6211" rx="2.5" ry="2.5" style="stroke:#181818;stroke-width:0.5;" width="112.8271" x="1700.7017" y="50"/><text fill="#000000" font-family="sans-serif" font-size="14" lengthAdjust="spacing" textLength="98.8271" x="1707.7017" y="72.1074">BookRepository</text><rect fill="#E2E2F0" height="32.6211" rx="2.5" ry="2.5" style="stroke:#181818;stroke-width:0.5;" width="112.8271" x="1700.7017" y="972.0801"/><text fill="#000000" font-family="sans-serif" font-size="14" lengthAdjust="spacing" textLength="98.8271" x="1707.7017" y="994.1875">BookRepository</text><rect fill="#E2E2F0" height="32.6211" rx="2.5" ry="2.5" style="stroke:#181818;stroke-width:0.5;" width="119.8271" x="1823.5288" y="50"/><text fill="#000000" font-family="sans-serif" font-size="14" lengthAdjust="spacing" textLength="105.8271" x="1830.5288" y="72.1074">GenreRepository</text><rect fill="#E2E2F0" height="32.6211" rx="2.5" ry="2.5" style="stroke:#181818;stroke-width:0.5;" width="119.8271" x="1823.5288" y="972.0801"/><text fill="#000000" font-family="sans-serif" font-size="14" lengthAdjust="spacing" textLength="105.8271" x="1830.5288" y="994.1875">GenreRepository</text><rect fill="#E2E2F0" height="32.6211" rx="2.5" ry="2.5" style="stroke:#181818;stroke-width:0.5;" width="126.834" x="1953.356" y="50"/><text fill="#000000" font-family="sans-serif" font-size="14" lengthAdjust="spacing" textLength="112.834" x="1960.356" y="72.1074">ReaderRepository</text><rect fill="#E2E2F0" height="32.6211" rx="2.5" ry="2.5" style="stroke:#181818;stroke-width:0.5;" width="126.834" x="1953.356" y="972.0801"/><text fill="#000000" font-family="sans-serif" font-size="14" lengthAdjust="spacing" textLength="112.834" x="1960.356" y="994.1875">ReaderRepository</text><rect fill="#FFFFFF" height="775.5859" style="stroke:#181818;stroke-width:1.0;" width="10" x="570.915" y="148.2031"/><rect fill="#FFFFFF" height="410.7539" style="stroke:#181818;stroke-width:1.0;" width="10" x="1176.7725" y="237.0762"/><rect fill="#FFFFFF" height="189.7461" style="stroke:#181818;stroke-width:1.0;" width="10" x="1396.0957" y="695.752"/><polygon fill="#181818" points="274.3408,112.9121,284.3408,116.9121,274.3408,120.9121,278.3408,116.9121" style="stroke:#181818;stroke-width:1.0;"/><line style="stroke:#181818;stroke-width:1.0;" x1="22.7793" x2="280.3408" y1="116.9121" y2="116.9121"/><text fill="#000000" font-family="sans-serif" font-size="13" font-weight="bold" lengthAdjust="spacing" textLength="7.23" x="29.7793" y="111.6494">1</text><text fill="#000000" font-family="sans-serif" font-size="13" lengthAdjust="spacing" textLength="228.3315" x="41.0093" y="111.6494">Selects the recommendations algorithm</text><polygon fill="#181818" points="558.915,144.2031,568.915,148.2031,558.915,152.2031,562.915,148.2031" style="stroke:#181818;stroke-width:1.0;"/><line style="stroke:#181818;stroke-width:1.0;" x1="286.3408" x2="564.915" y1="148.2031" y2="148.2031"/><text fill="#000000" font-family="sans-serif" font-size="13" font-weight="bold" lengthAdjust="spacing" textLength="7.23" x="293.3408" y="142.9404">2</text><text fill="#000000" font-family="sans-serif" font-size="13" lengthAdjust="spacing" textLength="254.3442" x="304.5708" y="142.9404">GET /api/recommendations/{readerNumber}</text><polygon fill="#181818" points="869.3438,175.4941,879.3438,179.4941,869.3438,183.4941,873.3438,179.4941" style="stroke:#181818;stroke-width:1.0;"/><line style="stroke:#181818;stroke-width:1.0;" x1="580.915" x2="875.3438" y1="179.4941" y2="179.4941"/><text fill="#000000" font-family="sans-serif" font-size="13" font-weight="bold" lengthAdjust="spacing" textLength="7.23" x="587.915" y="174.2314">3</text><text fill="#000000" font-family="sans-serif" font-size="13" lengthAdjust="spacing" textLength="265.1987" x="599.145" y="174.2314">getLendingRecommendations(readerNumber)</text><path d="M463.5981,194.4941 L523.769,194.4941 L523.769,203.7852 L513.769,213.7852 L463.5981,213.7852 L463.5981,194.4941 " fill="#EEEEEE" style="stroke:#000000;stroke-width:1.5;"/><rect fill="none" height="699.0039" style="stroke:#000000;stroke-width:1.5;" width="1626.5918" x="463.5981" y="194.4941"/><text fill="#000000" font-family="sans-serif" font-size="13" font-weight="bold" lengthAdjust="spacing" textLength="15.1709" x="478.5981" y="209.5225">alt</text><text fill="#000000" font-family="sans-serif" font-size="11" font-weight="bold" lengthAdjust="spacing" textLength="221.5791" x="538.769" y="208.3643">[Algoritmo configurado = "RecAlgByAge"]</text><polygon fill="#181818" points="1164.7725,233.0762,1174.7725,237.0762,1164.7725,241.0762,1168.7725,237.0762" style="stroke:#181818;stroke-width:1.0;"/><line style="stroke:#181818;stroke-width:1.0;" x1="881.3438" x2="1170.7725" y1="237.0762" y2="237.0762"/><text fill="#000000" font-family="sans-serif" font-size="13" font-weight="bold" lengthAdjust="spacing" textLength="7.23" x="888.3438" y="231.8135">4</text><text fill="#000000" font-family="sans-serif" font-size="13" lengthAdjust="spacing" textLength="265.1987" x="899.5737" y="231.8135">getLendingRecommendations(readerNumber)</text><polygon fill="#181818" points="2004.7729,264.3672,2014.7729,268.3672,2004.7729,272.3672,2008.7729,268.3672" style="stroke:#181818;stroke-width:1.0;"/><line style="stroke:#181818;stroke-width:1.0;" x1="1186.7725" x2="2010.7729" y1="268.3672" y2="268.3672"/><text fill="#000000" font-family="sans-serif" font-size="13" font-weight="bold" lengthAdjust="spacing" textLength="7.23" x="1193.7725" y="263.1045">5</text><text fill="#000000" font-family="sans-serif" font-size="13" lengthAdjust="spacing" textLength="166.8926" x="1205.0024" y="263.1045">findByUserId(readerNumber)</text><polygon fill="#181818" points="1197.7725,295.6582,1187.7725,299.6582,1197.7725,303.6582,1193.7725,299.6582" style="stroke:#181818;stroke-width:1.0;"/><line style="stroke:#181818;stroke-width:1.0;stroke-dasharray:2.0,2.0;" x1="1191.7725" x2="2015.7729" y1="299.6582" y2="299.6582"/><text fill="#000000" font-family="sans-serif" font-size="13" font-weight="bold" lengthAdjust="spacing" textLength="7.23" x="1203.7725" y="294.3955">6</text><text fill="#000000" font-family="sans-serif" font-size="13" lengthAdjust="spacing" textLength="82.3735" x="1215.0024" y="294.3955">ReaderDetails</text><path d="M1079.1729,314.6582 L1139.3438,314.6582 L1139.3438,323.9492 L1129.3438,333.9492 L1079.1729,333.9492 L1079.1729,314.6582 " fill="#EEEEEE" style="stroke:#000000;stroke-width:1.5;"/><rect fill="none" height="302.8809" style="stroke:#000000;stroke-width:1.5;" width="874.1831" x="1079.1729" y="314.6582"/><text fill="#000000" font-family="sans-serif" font-size="13" font-weight="bold" lengthAdjust="spacing" textLength="15.1709" x="1094.1729" y="329.6865">alt</text><text fill="#000000" font-family="sans-serif" font-size="11" font-weight="bold" lengthAdjust="spacing" textLength="95.353" x="1154.3438" y="328.5283">[Idade &lt;= minAge]</text><polygon fill="#181818" points="1745.1152,353.2402,1755.1152,357.2402,1745.1152,361.2402,1749.1152,357.2402" style="stroke:#181818;stroke-width:1.0;"/><line style="stroke:#181818;stroke-width:1.0;" x1="1186.7725" x2="1751.1152" y1="357.2402" y2="357.2402"/><text fill="#000000" font-family="sans-serif" font-size="13" font-weight="bold" lengthAdjust="spacing" textLength="7.23" x="1193.7725" y="351.9775">7</text><text fill="#000000" font-family="sans-serif" font-size="13" lengthAdjust="spacing" textLength="242.6138" x="1205.0024" y="351.9775">findTopLentBooksByGenre("Infantil", limit)</text><polygon fill="#181818" points="1197.7725,384.5313,1187.7725,388.5313,1197.7725,392.5313,1193.7725,388.5313" style="stroke:#181818;stroke-width:1.0;"/><line style="stroke:#181818;stroke-width:1.0;stroke-dasharray:2.0,2.0;" x1="1191.7725" x2="1756.1152" y1="388.5313" y2="388.5313"/><text fill="#000000" font-family="sans-serif" font-size="13" font-weight="bold" lengthAdjust="spacing" textLength="7.23" x="1203.7725" y="383.2686">8</text><text fill="#000000" font-family="sans-serif" font-size="13" lengthAdjust="spacing" textLength="169.0889" x="1215.0024" y="383.2686">Lista de livros recomendados</text><line style="stroke:#000000;stroke-width:1.0;stroke-dasharray:2.0,2.0;" x1="1079.1729" x2="1953.356" y1="397.5313" y2="397.5313"/><text fill="#000000" font-family="sans-serif" font-size="11" font-weight="bold" lengthAdjust="spacing" textLength="144.2622" x="1084.1729" y="409.4014">[minAge &lt; Idade &lt; maxAge]</text><polygon fill="#181818" points="1745.1152,432.4531,1755.1152,436.4531,1745.1152,440.4531,1749.1152,436.4531" style="stroke:#181818;stroke-width:1.0;"/><line style="stroke:#181818;stroke-width:1.0;" x1="1186.7725" x2="1751.1152" y1="436.4531" y2="436.4531"/><text fill="#000000" font-family="sans-serif" font-size="13" font-weight="bold" lengthAdjust="spacing" textLength="7.23" x="1193.7725" y="431.1904">9</text><text fill="#000000" font-family="sans-serif" font-size="13" lengthAdjust="spacing" textLength="244.0356" x="1205.0024" y="431.1904">findTopLentBooksByGenre("Thriller", limit)</text><polygon fill="#181818" points="1197.7725,463.7441,1187.7725,467.7441,1197.7725,471.7441,1193.7725,467.7441" style="stroke:#181818;stroke-width:1.0;"/><line style="stroke:#181818;stroke-width:1.0;stroke-dasharray:2.0,2.0;" x1="1191.7725" x2="1756.1152" y1="467.7441" y2="467.7441"/><text fill="#000000" font-family="sans-serif" font-size="13" font-weight="bold" lengthAdjust="spacing" textLength="14.46" x="1203.7725" y="462.4814">10</text><text fill="#000000" font-family="sans-serif" font-size="13" lengthAdjust="spacing" textLength="169.0889" x="1222.2324" y="462.4814">Lista de livros recomendados</text><line style="stroke:#000000;stroke-width:1.0;stroke-dasharray:2.0,2.0;" x1="1079.1729" x2="1953.356" y1="476.7441" y2="476.7441"/><text fill="#000000" font-family="sans-serif" font-size="11" font-weight="bold" lengthAdjust="spacing" textLength="97.813" x="1084.1729" y="488.6143">[Idade &gt;= maxAge]</text><polygon fill="#181818" points="1871.4424,511.666,1881.4424,515.666,1871.4424,519.666,1875.4424,515.666" style="stroke:#181818;stroke-width:1.0;"/><line style="stroke:#181818;stroke-width:1.0;" x1="1186.7725" x2="1877.4424" y1="515.666" y2="515.666"/><text fill="#000000" font-family="sans-serif" font-size="13" font-weight="bold" lengthAdjust="spacing" textLength="14.46" x="1193.7725" y="510.4033">11</text><text fill="#000000" font-family="sans-serif" font-size="13" lengthAdjust="spacing" textLength="180.6606" x="1212.2324" y="510.4033">findTopGenresByLendCount(1)</text><polygon fill="#181818" points="1197.7725,542.957,1187.7725,546.957,1197.7725,550.957,1193.7725,546.957" style="stroke:#181818;stroke-width:1.0;"/><line style="stroke:#181818;stroke-width:1.0;stroke-dasharray:2.0,2.0;" x1="1191.7725" x2="1882.4424" y1="546.957" y2="546.957"/><text fill="#000000" font-family="sans-serif" font-size="13" font-weight="bold" lengthAdjust="spacing" textLength="14.46" x="1203.7725" y="541.6943">12</text><text fill="#000000" font-family="sans-serif" font-size="13" lengthAdjust="spacing" textLength="59.2617" x="1222.2324" y="541.6943">Top genre</text><polygon fill="#181818" points="1745.1152,574.248,1755.1152,578.248,1745.1152,582.248,1749.1152,578.248" style="stroke:#181818;stroke-width:1.0;"/><line style="stroke:#181818;stroke-width:1.0;" x1="1186.7725" x2="1751.1152" y1="578.248" y2="578.248"/><text fill="#000000" font-family="sans-serif" font-size="13" font-weight="bold" lengthAdjust="spacing" textLength="14.46" x="1193.7725" y="572.9854">13</text><text fill="#000000" font-family="sans-serif" font-size="13" lengthAdjust="spacing" textLength="254.3442" x="1212.2324" y="572.9854">findTopLentBooksByGenre(Top genre, limit)</text><polygon fill="#181818" points="1197.7725,605.5391,1187.7725,609.5391,1197.7725,613.5391,1193.7725,609.5391" style="stroke:#181818;stroke-width:1.0;"/><line style="stroke:#181818;stroke-width:1.0;stroke-dasharray:2.0,2.0;" x1="1191.7725" x2="1756.1152" y1="609.5391" y2="609.5391"/><text fill="#000000" font-family="sans-serif" font-size="13" font-weight="bold" lengthAdjust="spacing" textLength="14.46" x="1203.7725" y="604.2764">14</text><text fill="#000000" font-family="sans-serif" font-size="13" lengthAdjust="spacing" textLength="169.0889" x="1222.2324" y="604.2764">Lista de livros recomendados</text><polygon fill="#181818" points="591.915,643.8301,581.915,647.8301,591.915,651.8301,587.915,647.8301" style="stroke:#181818;stroke-width:1.0;"/><line style="stroke:#181818;stroke-width:1.0;stroke-dasharray:2.0,2.0;" x1="585.915" x2="1180.7725" y1="647.8301" y2="647.8301"/><text fill="#000000" font-family="sans-serif" font-size="13" font-weight="bold" lengthAdjust="spacing" textLength="14.46" x="597.915" y="642.5674">15</text><text fill="#000000" font-family="sans-serif" font-size="13" lengthAdjust="spacing" textLength="169.0889" x="616.375" y="642.5674">Lista de livros recomendados</text><line style="stroke:#000000;stroke-width:1.0;stroke-dasharray:2.0,2.0;" x1="463.5981" x2="2090.1899" y1="656.8301" y2="656.8301"/><text fill="#000000" font-family="sans-serif" font-size="11" font-weight="bold" lengthAdjust="spacing" textLength="209.9346" x="468.5981" y="668.7002">[Algoritmo configurado = "TopLentAlg"]</text><polygon fill="#181818" points="1384.0957,691.752,1394.0957,695.752,1384.0957,699.752,1388.0957,695.752" style="stroke:#181818;stroke-width:1.0;"/><line style="stroke:#181818;stroke-width:1.0;" x1="881.3438" x2="1390.0957" y1="695.752" y2="695.752"/><text fill="#000000" font-family="sans-serif" font-size="13" font-weight="bold" lengthAdjust="spacing" textLength="14.46" x="888.3438" y="690.4893">16</text><text fill="#000000" font-family="sans-serif" font-size="13" lengthAdjust="spacing" textLength="265.1987" x="906.8037" y="690.4893">getLendingRecommendations(readerNumber)</text><polygon fill="#181818" points="1871.4424,723.043,1881.4424,727.043,1871.4424,731.043,1875.4424,727.043" style="stroke:#181818;stroke-width:1.0;"/><line style="stroke:#181818;stroke-width:1.0;" x1="1406.0957" x2="1877.4424" y1="727.043" y2="727.043"/><text fill="#000000" font-family="sans-serif" font-size="13" font-weight="bold" lengthAdjust="spacing" textLength="14.46" x="1413.0957" y="721.7803">17</text><text fill="#000000" font-family="sans-serif" font-size="13" lengthAdjust="spacing" textLength="269.5342" x="1431.5557" y="721.7803">findTopGenresByLendCount(yMostLentGenre)</text><polygon fill="#181818" points="1417.0957,754.334,1407.0957,758.334,1417.0957,762.334,1413.0957,758.334" style="stroke:#181818;stroke-width:1.0;"/><line style="stroke:#181818;stroke-width:1.0;stroke-dasharray:2.0,2.0;" x1="1411.0957" x2="1882.4424" y1="758.334" y2="758.334"/><text fill="#000000" font-family="sans-serif" font-size="13" font-weight="bold" lengthAdjust="spacing" textLength="14.46" x="1423.0957" y="753.0713">18</text><text fill="#000000" font-family="sans-serif" font-size="13" lengthAdjust="spacing" textLength="212.4434" x="1441.5557" y="753.0713">Lista dos g&#234;neros mais emprestados</text><path d="M1274.3721,773.334 L1346.8066,773.334 L1346.8066,782.625 L1336.8066,792.625 L1274.3721,792.625 L1274.3721,773.334 " fill="#EEEEEE" style="stroke:#000000;stroke-width:1.5;"/><rect fill="none" height="81.873" style="stroke:#000000;stroke-width:1.5;" width="549.1567" x="1274.3721" y="773.334"/><text fill="#000000" font-family="sans-serif" font-size="13" font-weight="bold" lengthAdjust="spacing" textLength="27.4346" x="1289.3721" y="788.3623">loop</text><text fill="#000000" font-family="sans-serif" font-size="11" font-weight="bold" lengthAdjust="spacing" textLength="314.8374" x="1361.8066" y="787.2041">[Para cada g&#234;nero em Lista dos g&#234;neros mais emprestados]</text><polygon fill="#181818" points="1745.1152,811.916,1755.1152,815.916,1745.1152,819.916,1749.1152,815.916" style="stroke:#181818;stroke-width:1.0;"/><line style="stroke:#181818;stroke-width:1.0;" x1="1406.0957" x2="1751.1152" y1="815.916" y2="815.916"/><text fill="#000000" font-family="sans-serif" font-size="13" font-weight="bold" lengthAdjust="spacing" textLength="14.46" x="1413.0957" y="810.6533">19</text><text fill="#000000" font-family="sans-serif" font-size="13" lengthAdjust="spacing" textLength="308.5596" x="1431.5557" y="810.6533">findTopLentBooksByGenre(g&#234;nero, xBooksMostLent)</text><polygon fill="#181818" points="1417.0957,843.207,1407.0957,847.207,1417.0957,851.207,1413.0957,847.207" style="stroke:#181818;stroke-width:1.0;"/><line style="stroke:#181818;stroke-width:1.0;stroke-dasharray:2.0,2.0;" x1="1411.0957" x2="1756.1152" y1="847.207" y2="847.207"/><text fill="#000000" font-family="sans-serif" font-size="13" font-weight="bold" lengthAdjust="spacing" textLength="14.46" x="1423.0957" y="841.9443">20</text><text fill="#000000" font-family="sans-serif" font-size="13" lengthAdjust="spacing" textLength="169.0889" x="1441.5557" y="841.9443">Lista de livros recomendados</text><polygon fill="#181818" points="591.915,881.498,581.915,885.498,591.915,889.498,587.915,885.498" style="stroke:#181818;stroke-width:1.0;"/><line style="stroke:#181818;stroke-width:1.0;stroke-dasharray:2.0,2.0;" x1="585.915" x2="1400.0957" y1="885.498" y2="885.498"/><text fill="#000000" font-family="sans-serif" font-size="13" font-weight="bold" lengthAdjust="spacing" textLength="14.46" x="597.915" y="880.2354">21</text><text fill="#000000" font-family="sans-serif" font-size="13" lengthAdjust="spacing" textLength="169.0889" x="616.375" y="880.2354">Lista de livros recomendados</text><polygon fill="#181818" points="297.3408,919.7891,287.3408,923.7891,297.3408,927.7891,293.3408,923.7891" style="stroke:#181818;stroke-width:1.0;"/><line style="stroke:#181818;stroke-width:1.0;stroke-dasharray:2.0,2.0;" x1="291.3408" x2="574.915" y1="923.7891" y2="923.7891"/><text fill="#000000" font-family="sans-serif" font-size="13" font-weight="bold" lengthAdjust="spacing" textLength="14.46" x="303.3408" y="918.5264">22</text><text fill="#000000" font-family="sans-serif" font-size="13" lengthAdjust="spacing" textLength="169.0889" x="321.8008" y="918.5264">Lista de livros recomendados</text><polygon fill="#181818" points="33.7793,951.0801,23.7793,955.0801,33.7793,959.0801,29.7793,955.0801" style="stroke:#181818;stroke-width:1.0;"/><line style="stroke:#181818;stroke-width:1.0;stroke-dasharray:2.0,2.0;" x1="27.7793" x2="285.3408" y1="955.0801" y2="955.0801"/><text fill="#000000" font-family="sans-serif" font-size="13" font-weight="bold" lengthAdjust="spacing" textLength="14.46" x="39.7793" y="949.8174">23</text><text fill="#000000" font-family="sans-serif" font-size="13" lengthAdjust="spacing" textLength="173.4307" x="58.2393" y="949.8174">Exibe lista de recomenda&#231;&#245;es</text><!--SRC=[hLNDQkCm4BxxAGQVKcW9UpLD8MbB2RHbwMPlUr7jYIDMbeoaX8HbdsTXx_i4UR6LP5kotAGDeJd5y_FDDpEV9BBMWg-hLvH9Gd8j9AJV5SeKY8ArijQQI4rpMXEk8Nt1N5GLye9eAlYju5eAnb3-u1aSypciyFaUu3UK6vhZMxJMCQzgvk3QxnXhok8a2pEqkUmfAuMaUbMzxSwuPhjfYOTodQC1AD44niaBKJyYryP-AFT9A6tTCo5-EeWGFY1X8rwm5egQRUnSR6UA0n-GInn4UjkmCLAW7CG6OvBOLSFLJMzDcPanmrmhq2i46JMZW8G9XXGBq2ucWuVx1On9JSU3rF4lwUe-Ez7zjgAZ6wBHhpHf_rWqlwWCIhJpAoWluy6gKH_l8Y5CTscLW5pm9ItNaXG29j62qmJCpnTmrTnMJozb0JpzLX8Dgljl8SECCrXINinszdJDYmD88HIkUcGQynrgGfbgu6sByyAOuNe25UKcrDdZqfreciAjtAnHpNPE9gDqpfT67fIbby1eHVM5X-cI8ogFL6a2fYoZ6obK8mexd48ebubCOKi8hZkAK97jsGmNAqdT7VAP31jYDvFZpFmnyjISnV2omhWLQwv7Nm8N7nwHCLb6IiPpLki- -xCwvqKiplvX_J2xmA7GtIIF7hHmknquPy5vvbdhtvtM4RvFNTwkku-Tgu6FjzWdsOx73ARS_-Le9rGHgW2hsk1gDoK7mOJPsbSY2UIa85sqYJi9ebjmtCx7KcaHBs7hp5rhHnHpeB4JLDFdTAvoUcjpkFwY7pmyxsBsyBeNe_y26IZxbcLmlwMl5g65yXZxF_j_g9B_]--></g></svg>